*******************************************************************************
 11-11-11.2011.R2.DVDRip.Xvid.AC3- SiNiSTER
*******************************************************************************
-------------------------------------------------------------------------------
 General Information
------------------------------------------------------------------------------- 
http://www.pix2links.com/image/fLq27.jpg
Format : AVI
Format/Info : Audio Video Interleave
File size : 1.60 GiB
Duration : 1h 32mn
Overall bit rate : 2 463 Kbps
Video
ID : 0
Format : MPEG-4 Visual
Format profile : Advanced Simple@L5
Format settings, BVOP : Yes
Format settings, QPel : No
Format settings, GMC : No warppoints
Format settings, Matrix : Default (H.263)
Muxing mode : Packed bitstream
Codec ID : XVID
Codec ID/Hint : XviD
Duration : 1h 32mn
Bit rate : 2 007 Kbps
Width : 720 pixels
Height : 304 pixels
Display aspect ratio : 2.35:1
Frame rate : 25.000 fps
Color space : YUV
Chroma subsampling : 4:2:0
Bit depth : 8 bits
Scan type : Progressive
Bits/(Pixel*Frame) : 0.367
Stream size : 1.30 GiB (81%)
Writing library : XviD 1.2.1 (UTC 2008-12-04)
Audio
ID : 1
Format : AC-3
Format/Info : Audio Coding 3
Mode extension : CM (complete main)
Codec ID : 2000
Duration : 1h 32mn
Bit rate mode : Constant
Bit rate : 448 Kbps
Channel(s) : 6 channels
Channel positions : Front: L C R, Side: L R, LFE
Sampling rate : 48.0 KHz
Bit depth : 16 bits
Stream size : 298 MiB (18%)
Alignment : Aligned on interleaves
Interleave, duration : 64 ms (1.60 video frames)
Interleave, preload duration : 192 ms
Video Source: 11.11.11.2011.PAL.Retail.DD5.1.NL.Subs.....thanks	
Audio Source: 11.11.11.2011.PAL.Retail.DD5.1.NL.Subs.....thanks
Greets:
DarkScene,HDScene,Noir,CrEwSaDe,blackjesus,ViSiON,HDLiTE,UnKnOwN,IMAGiNE,
FLAWL3SS,Rx,ELEKTRI4KA,CiNEDUB,BDK,SAFCuk009,HiVE-CM8..... and everybody else we 
respect.. u know who u are
-------------------------------------------------------------------------------
 Post Information
-------------------------------------------------------------------------------
Encoded by...........: SiNiSTER
 
Have sumthing to offer..looking for suppliers... cammers,cams,screeners, audio
supplier.. and any pre retail DVD/BR any RC...if u can provide any email us at
sinister@hushmail.me
-------------------------------------------------------------------------------
 Release Notes
-------------------------------------------------------------------------------
source was nice.. made a script to crop, resize, denoise, adjust coloring and
sharpen... then just muxed the AC3 backto my encode.... enjoy
-------------------------------------------------------------------------------
 ScreenShots
------------------------------------------------------------------------------- 
http://www.pix2links.com/image/CVe9Y.png 
http://www.pix2links.com/image/nv0rk.png 
http://www.pix2links.com/image/KV6Xm.png 
http://www.pix2links.com/image/2TvD.png 
http://www.pix2links.com/image/znpKU.jpg
-------------------------------------------------------------------------------
[img]http://leetleech.org/images/33506450373550172140.gif[/img]
-------------------------------------------------------------------------------
Generated with Cool NFO Creator - http://fly.to/coolbeans
-------------------------------------------------------------------------------
[img]http://www.pix2links.com/images/33502453931372952618.gif[/img]